# xmcd CD database file
#
# Track frame offsets:
#	150
#	30582
#	44397
#	92290
#	122032
#	149220
#	170720
#	188882
#
# Disc length: 2847 seconds
#
# Revision: 2
# Processed by: cddbd v1.5.1PL0 Copyright (c) Steve Scherf et al.
# Submitted via: CDex 1.51
#
DISCID=6e0b1d08
DTITLE=Dizzy Reece - Blues in Trinity
DYEAR=1958
DGENRE=Jazz
TTITLE0=Blues in Trinity
TTITLE1=I Had the Craziest Dream
TTITLE2=Close-up
TTITLE3=Shepherd's Serenade
TTITLE4=Color Blind
TTITLE5='Round About Midnight
TTITLE6=Eboo
TTITLE7=Just A Penny
EXTD=YEAR: 1958
EXTT0=
EXTT1=
EXTT2=
EXTT3=
EXTT4=
EXTT5=
EXTT6=
EXTT7=
PLAYORDER=
